<?xml version="1.0" encoding="UTF-8"?>
<svg version="1.1" xmlns="http://www.w3.org/2000/svg" width="500" height="500">
<path d="M0 0 C165 0 330 0 500 0 C500 165 500 330 500 500 C335 500 170 500 0 500 C0 335 0 170 0 0 Z " fill="#FEFEFE" transform="translate(0,0)"/>
<path d="M0 0 C5.43738494 3.16127031 8.02049332 8.18367173 10 14 C11.1181024 21.62817528 10.00843675 27.7261097 5.5234375 34.09765625 C0.86719681 39.95516452 -3.23826844 42.37082226 -10.6015625 43.34375 C-18.37403481 43.78163576 -24.76401128 41.70897604 -30.6640625 36.54296875 C-36.20915717 30.39796618 -36.50370229 23.31339821 -36.37890625 15.41796875 C-35.6765199 9.08200938 -32.62389121 5.28171049 -28 1.125 C-19.44660041 -4.93365804 -9.20249473 -4.52052373 0 0 Z " fill="#3C3B48" transform="translate(324,222)"/>
<path d="M0 0 C2.75 2.25 2.75 2.25 5 5 C5.763125 5.928125 6.52625 6.85625 7.3125 7.8125 C10.522473 13.78515468 9.7718254 21.47275245 9 28 C6.63939791 34.62710012 1.88409934 38.38490437 -4.125 41.75 C-10.15856378 44.14761705 -16.64038196 43.70788541 -22.75 41.875 C-30.02136394 37.67998234 -34.73628987 33.30473538 -37 25 C-38.08036968 17.91633901 -36.7178656 12.09585106 -33 6 C-24.74191068 -3.74031048 -11.34647327 -6.45039234 0 0 Z " fill="#3D3C48" transform="translate(276,222)"/>
<path d="M0 0 C4.40511203 2.81219205 7.84110383 7.27489584 9.75 12.1171875 C10.015625 15.0625 10.015625 15.0625 10 18.2421875 C10.00773437 19.82386719 10.00773437 19.82386719 10.015625 21.4375 C9.75 24.1171875 9.75 24.1171875 7.75 26.1171875 C4.67724609 26.34423828 4.67724609 26.34423828 0.7734375 26.3125 C0.08819 26.3096701 -0.5970575 26.30684021 -1.30307007 26.30392456 C-3.49389027 26.29272031 -5.68430316 26.26761609 -7.875 26.2421875 C-9.3593691 26.23215798 -10.8437446 26.22303208 -12.328125 26.21484375 C-15.96888261 26.19278044 -19.60940156 26.15824926 -23.25 26.1171875 C-20.56787381 30.93345891 -20.56787381 30.93345891 -16.25 34.1171875 C-10.31307078 34.94427878 -6.52873274 33.93251163 -1.25 31.1171875 C2.0625 30.8671875 2.0625 30.8671875 4.75 31.1171875 C5.75 32.1171875 5.75 32.1171875 6.3125 34.8671875 C5.75 38.1171875 5.75 38.1171875 4.10546875 39.58984375 C-2.77714574 43.96968933 -9.12303453 45.07266957 -17.25 44.1171875 C-24.86656318 41.55708746 -29.04242873 37.98043722 -33 31.0546875 C-35.34441423 25.06340669 -35.30554866 18.37405131 -33.3359375 12.296875 C-30.47124934 6.10545221 -27.18004903 1.98643771 -20.92578125 -0.98828125 C-14.38035925 -3.17645882 -6.33560029 -2.77182513 0 0 Z " fill="#3D3C49" transform="translate(142.25,220.8828125)"/>
<path d="M0 0 C4.90431864 3.11993485 7.97165046 7.64830755 9.75 13.11328125 C10.05078125 15.9375 10.05078125 15.9375 10.0625 18.80078125 C10.07925781 19.75339844 10.09601563 20.70601562 10.11328125 21.6875 C9.99339844 22.48800781 9.87351563 23.28851563 9.75 24.11328125 C6.02459338 26.59688566 4.11937027 26.34486795 -0.32421875 26.30859375 C-1.0080513 26.30576385 -1.69188385 26.30293396 -2.3964386 26.30001831 C-4.57697165 26.28883809 -6.75709145 26.26373816 -8.9375 26.23828125 C-10.41731177 26.22824863 -11.89712999 26.21912327 -13.37695312 26.2109375 C-17.001436 26.18890606 -20.62567766 26.15439127 -24.25 26.11328125 C-21.21227005 31.26095014 -21.21227005 31.26095014 -16.25 34.11328125 C-10.36814391 34.84970876 -6.1970259 34.50552758 -1.25 31.11328125 C1.4375 30.80078125 1.4375 30.80078125 3.75 31.11328125 C5.75 33.11328125 5.75 33.11328125 5.8125 35.98828125 C4.49713045 39.85701521 3.13862499 40.55123326 -0.36328125 42.3515625 C-6.59717336 44.86835124 -13.6076522 45.30681895 -20.015625 43.20703125 C-26.36353911 40.24213723 -30.71560693 37.00367502 -33.3515625 30.3203125 C-35.19684161 23.73346838 -35.53688526 16.02269521 -32.6875 9.67578125 C-25.83155082 -1.82373634 -12.17182451 -5.35053119 0 0 Z " fill="#3D3C48" transform="translate(193.25,220.88671875)"/>
<path d="M0 0 C4.84649123 3.35526316 4.84649123 3.35526316 6.25 6.25 C6.5625 8.875 6.5625 8.875 6.25 11.25 C4.25 13.25 4.25 13.25 2 13.6875 C-0.75 13.25 -0.75 13.25 -3.25 10.75 C-7.19269931 7.08743985 -11.82332858 7.77996186 -16.921875 7.87890625 C-19.88124322 7.97517509 -19.88124322 7.97517509 -21.75 10.25 C-21.75 11.57 -21.75 12.89 -21.75 14.25 C-21.18603516 14.31469482 -20.62207031 14.37938965 -20.04101562 14.44604492 C-17.44111658 14.75612707 -14.84602935 15.09658884 -12.25 15.4375 C-10.9196875 15.58928711 -10.9196875 15.58928711 -9.5625 15.74414062 C-3.38882296 16.58394228 1.40061938 18.23100374 6.25 22.25 C8.09869552 25.94739105 7.58220142 30.2060866 7.25 34.25 C5.85952123 38.24762645 3.93273821 39.59886932 0.3125 41.5 C-7.22719154 45.04467194 -16.20458741 45.70994312 -24.1875 43.125 C-28.27808286 41.3060143 -30.37434169 39.03620543 -32.75 35.25 C-33.1875 32 -33.1875 32 -32.75 29.25 C-32.09 28.59 -31.43 27.93 -30.75 27.25 C-27.75 27.3125 -27.75 27.3125 -24.75 28.25 C-24.04788106 29.90204456 -23.38028587 31.56923769 -22.75 33.25 C-20.6449521 34.22861264 -20.6449521 34.22861264 -17.75 34.25 C-16.96625 34.30027344 -16.1825 34.35054687 -15.375 34.40234375 C-10.31499505 34.59058798 -6.87441169 34.54952935 -2.75 31.25 C-3.08 29.93 -3.41 28.61 -3.75 27.25 C-4.32443848 27.18006836 -4.89887695 27.11013672 -5.49072266 27.03808594 C-8.12116219 26.70841973 -10.74778814 26.35443609 -13.375 26 C-14.73044922 25.83564453 -14.73044922 25.83564453 -16.11328125 25.66796875 C-22.79152154 24.74178944 -26.65727182 23.1365463 -31.625 18.5 C-33.32202328 15.10595343 -33.38557611 11.91515559 -32.75 8.25 C-30.23407183 3.31132618 -27.3556153 0.4243059 -22.046875 -1.3046875 C-15.17807551 -2.63639352 -6.43073691 -3.05939909 0 0 Z " fill="#3E3D4A" transform="translate(382.75,220.75)"/>
<path d="M0 0 C3 0.25 3 0.25 5 2.25 C5.1953125 4.6328125 5.1953125 4.6328125 5.125 7.375 C5.10695312 8.28507813 5.08890625 9.19515625 5.0703125 10.1328125 C5.04710937 10.83148438 5.02390625 11.53015625 5 12.25 C5.69867188 12.22679687 6.39734375 12.20359375 7.1171875 12.1796875 C8.02726562 12.16164062 8.93734375 12.14359375 9.875 12.125 C11.23238281 12.09019531 11.23238281 12.09019531 12.6171875 12.0546875 C15 12.25 15 12.25 17 14.25 C16.75 16.8125 16.75 16.8125 16 19.25 C13.59454362 20.45272819 12.05003047 20.35071472 9.375 20.3125 C8.14910156 20.29896484 8.14910156 20.29896484 6.8984375 20.28515625 C6.27195313 20.27355469 5.64546875 20.26195312 5 20.25 C5.1387078 24.18778511 5.28718492 28.12514223 5.4375 32.0625 C5.47681641 33.18205078 5.51613281 34.30160156 5.55664062 35.45507812 C5.59853516 36.52822266 5.64042969 37.60136719 5.68359375 38.70703125 C5.72025146 39.69678955 5.75690918 40.68654785 5.79467773 41.70629883 C5.90790331 44.3718351 5.90790331 44.3718351 7 47.25 C7.69867188 47.22679687 8.39734375 47.20359375 9.1171875 47.1796875 C10.02726562 47.16164062 10.93734375 47.14359375 11.875 47.125 C13.23238281 47.09019531 13.23238281 47.09019531 14.6171875 47.0546875 C17 47.25 17 47.25 19 49.25 C19.375 51.6875 19.375 51.6875 19 54.25 C16.0988657 57.01896417 14.03111702 57.66168983 10.0625 57.625 C5.90785886 57.49669491 3.29510683 56.9459965 0 54.25 C-0.556875 53.816875 -1.11375 53.38375 -1.6875 52.9375 C-4.83992683 48.88437979 -5.24660526 44.17071036 -5.1953125 39.1953125 C-5.18886719 38.08671875 -5.18242187 36.978125 -5.17578125 35.8359375 C-5.15902344 34.69382813 -5.14226562 33.55171875 -5.125 32.375 C-5.11597656 31.2096875 -5.10695312 30.044375 -5.09765625 28.84375 C-5.07417432 25.97895423 -5.04133141 23.11458465 -5 20.25 C-7.31 19.92 -9.62 19.59 -12 19.25 C-12.33 17.6 -12.66 15.95 -13 14.25 C-9.93882432 11.62613513 -9.26826873 11.25 -5 11.25 C-5.02320313 10.62351563 -5.04640625 9.99703125 -5.0703125 9.3515625 C-5.09738281 8.12566406 -5.09738281 8.12566406 -5.125 6.875 C-5.14820313 6.06289062 -5.17140625 5.25078125 -5.1953125 4.4140625 C-4.86527933 0.75729499 -3.4960236 0.2913353 0 0 Z " fill="#3F3E4A" transform="translate(219,207.75)"/>
<path d="M0 0 C0.875 3 0.875 3 1 6 C-1 8 -1 8 -3.5625 8.1875 C-6 8 -6 8 -7 7 C-8.66617115 6.95936168 -10.33388095 6.957279 -12 7 C-12.66 8.65 -13.32 10.3 -14 12 C-13.36191406 11.98839844 -12.72382812 11.97679687 -12.06640625 11.96484375 C-11.24011719 11.95582031 -10.41382812 11.94679687 -9.5625 11.9375 C-8.73878906 11.92589844 -7.91507813 11.91429687 -7.06640625 11.90234375 C-5 12 -5 12 -4 13 C-3.8125 15.4375 -3.8125 15.4375 -4 18 C-6 20 -6 20 -7.9453125 20.1953125 C-9.96354167 20.13020833 -11.98177083 20.06510417 -14 20 C-13.98952637 20.98919434 -13.97905273 21.97838867 -13.96826172 22.99755859 C-13.93210981 26.66142164 -13.90911718 30.32526886 -13.89013672 33.98925781 C-13.88006812 35.57619883 -13.86641233 37.16312125 -13.84912109 38.75 C-13.82490999 41.02869247 -13.81352578 43.30714006 -13.8046875 45.5859375 C-13.79436493 46.29744965 -13.78404236 47.00896179 -13.77340698 47.74203491 C-13.77300578 49.49631665 -13.87797791 51.24996709 -14 53 C-16 55 -16 55 -18.4375 55.3125 C-21 55 -21 55 -22.6418457 53.9362793 C-24.68097036 51.02916125 -24.37028603 48.12490779 -24.29296875 44.70703125 C-24.28872391 44.00100266 -24.28447906 43.29497406 -24.28010559 42.56755066 C-24.26333034 40.31547697 -24.22568243 38.06430258 -24.1875 35.8125 C-24.17245157 34.28451815 -24.15876344 32.75652224 -24.14648438 31.22851562 C-24.11343089 27.48533128 -24.06165832 23.74281804 -24 20 C-24.804375 19.855625 -25.60875 19.71125 -26.4375 19.5625 C-29 19 -29 19 -30 18 C-30.125 15.5 -30.125 15.5 -30 13 C-29 12 -29 12 -25.9375 11.9375 C-24.4834375 11.9684375 -24.4834375 11.9684375 -23 12 C-23.103125 10.96875 -23.20625 9.9375 -23.3125 8.875 C-22.91787695 3.98167417 -21.50769968 2.35180192 -18 -1 C-12.75507734 -4.35092281 -5.12833603 -3.29115192 0 0 Z " fill="#3E3D49" transform="translate(82,209)"/>
<path d="M0 0 C3.44911361 1.64308168 5.4220907 4.02806164 7.375 7.3125 C8.72977986 13.13805341 8.80368725 17.19215667 5.8125 22.375 C3.55847544 25.58604057 1.98129582 27.2592938 -2 28 C-8.63232158 28.85578343 -8.63232158 28.85578343 -12.03515625 26.7265625 C-17.83135452 21.84680626 -17.83135452 21.84680626 -18.23828125 17.390625 C-18.3911821 10.92050491 -18.47163039 6.85491299 -14 2 C-9.53207462 -0.97861692 -5.23639444 -0.73309522 0 0 Z " fill="#FAFAFA" transform="translate(316,228)"/>
<path d="M0 0 C1.54563694 0.00269216 3.09128518 0.01775262 4.63671875 0.04296875 C5.84110596 0.05263672 5.84110596 0.05263672 7.06982422 0.0625 C13.85105145 0.14886787 20.57426803 0.5626291 27.32421875 1.23046875 C27.42324276 8.98734926 27.40886338 16.73184212 27.01171875 24.48046875 C26.92470703 26.31351563 26.92470703 26.31351563 26.8359375 28.18359375 C26.32421875 31.23046875 26.32421875 31.23046875 24.97265625 33.1328125 C22.41363361 34.83680625 20.30856672 34.54795258 17.32421875 34.23046875 C15.32421875 32.23046875 15.32421875 32.23046875 15.09375 28.96484375 C15.11501953 26.99257812 15.11501953 26.99257812 15.13671875 24.98046875 C15.14316406 23.6759375 15.14960938 22.37140625 15.15625 21.02734375 C15.30487872 17.66764346 15.68436943 14.52697245 16.32421875 11.23046875 C15.38570068 11.25403442 15.38570068 11.25403442 14.42822266 11.27807617 C11.60197944 11.3403155 8.77588014 11.37942337 5.94921875 11.41796875 C4.47195313 11.45567383 4.47195313 11.45567383 2.96484375 11.49414062 C1.55332031 11.50864258 1.55332031 11.50864258 0.11328125 11.5234375 C-0.75603027 11.53914795 -1.6253418 11.5548584 -2.52099609 11.57104492 C-3.2320752 11.45865479 -3.9431543 11.34626465 -4.67578125 11.23046875 C-6.67578125 8.23046875 -6.67578125 8.23046875 -6.42578125 5.16796875 C-5.30430448 0.77551805 -4.56150058 0.28600269 0 0 Z " fill="#21CD9A" transform="translate(388.67578125,198.76953125)"/>
<path d="M0 0 C3.69093513 2.10910579 5.41233378 4.12057211 7 8 C7.70644579 14.07359887 7.78613828 19.95181563 4 25 C0.10139271 27.71995857 -3.37276641 28.54319331 -8.0390625 28.35546875 C-11.37059736 27.7515451 -13.47028769 26.16832484 -16 24 C-19.1094445 19.16545273 -18.61324826 13.52662285 -18 8 C-14.75840183 -0.36747507 -7.97028037 -0.95690043 0 0 Z " fill="#FCFCFC" transform="translate(268,228)"/>
<path d="M0 0 C0.97851929 0.01643555 0.97851929 0.01643555 1.97680664 0.03320312 C9.08054539 0.18942255 16.16841978 0.6874915 23.25 1.25 C23.35280768 9.2004603 23.30311353 17.12194844 22.875 25.0625 C22.84414307 25.74957031 22.81328613 26.43664062 22.78149414 27.14453125 C22.48637921 32.01362079 22.48637921 32.01362079 20.25 34.25 C16.75 34.5 16.75 34.5 13.25 34.25 C11.25 32.25 11.25 32.25 11.11474609 30.09521484 C11.16711426 29.22590332 11.21948242 28.3565918 11.2734375 27.4609375 C11.325 26.51992187 11.3765625 25.57890625 11.4296875 24.609375 C11.49414062 23.62453125 11.55859375 22.6396875 11.625 21.625 C11.68171875 20.63242188 11.7384375 19.63984375 11.796875 18.6171875 C11.93859241 16.16075233 12.09002277 13.70530265 12.25 11.25 C11.35692139 11.26571045 11.35692139 11.26571045 10.44580078 11.28173828 C7.75557657 11.32323949 5.06541963 11.34930704 2.375 11.375 C0.96927734 11.40013672 0.96927734 11.40013672 -0.46484375 11.42578125 C-1.80869141 11.43544922 -1.80869141 11.43544922 -3.1796875 11.4453125 C-4.00710449 11.45578613 -4.83452148 11.46625977 -5.68701172 11.47705078 C-7.75 11.25 -7.75 11.25 -9.75 9.25 C-10.29911412 4.08832725 -10.29911412 4.08832725 -8.65234375 1.57421875 C-5.78778399 -0.41979718 -3.45461105 -0.07288209 0 0 Z " fill="#1ECC98" transform="translate(409.75,182.75)"/>
<path d="M0 0 C3 0.25 3 0.25 5 2.25 C5.26069641 4.45117188 5.26069641 4.45117188 5.2746582 7.21875 C5.28419022 8.25322266 5.29372223 9.28769531 5.30354309 10.35351562 C5.30263168 11.47435547 5.30172028 12.59519531 5.30078125 13.75 C5.30506638 14.89662109 5.3093515 16.04324219 5.31376648 17.22460938 C5.31951738 19.65233702 5.32000448 22.0800819 5.31567383 24.5078125 C5.312513 28.23467194 5.33596763 31.96073876 5.36132812 35.6875 C5.36360083 38.04166566 5.36430475 40.39583347 5.36328125 42.75 C5.372491 43.87083984 5.38170074 44.99167969 5.39118958 46.14648438 C5.38496078 47.18095703 5.37873199 48.21542969 5.37231445 49.28125 C5.37294388 50.19455078 5.3735733 51.10785156 5.3742218 52.04882812 C5.25072861 52.77521484 5.12723541 53.50160156 5 54.25 C2 56.25 2 56.25 -0.5625 56 C-3 55.25 -3 55.25 -5 53.25 C-5.25396729 51.08679199 -5.25396729 51.08679199 -5.25878906 48.37304688 C-5.26509338 47.35859497 -5.27139771 46.34414307 -5.27789307 45.2989502 C-5.2738446 44.19998413 -5.26979614 43.10101807 -5.265625 41.96875 C-5.26753845 40.84432495 -5.2694519 39.7198999 -5.27142334 38.56140137 C-5.27278617 36.18074317 -5.26908294 33.80007757 -5.26074219 31.41943359 C-5.25004429 27.76513047 -5.26063444 24.11131899 -5.2734375 20.45703125 C-5.27211592 18.14843641 -5.26955357 15.83984188 -5.265625 13.53125 C-5.26967346 12.43228394 -5.27372192 11.33331787 -5.27789307 10.2010498 C-5.27158875 9.1865979 -5.26528442 8.172146 -5.25878906 7.12695312 C-5.25719788 6.23141724 -5.25560669 5.33588135 -5.25396729 4.41320801 C-4.82675712 0.77437537 -3.50950702 0.29245892 0 0 Z " fill="#3D3C49" transform="translate(342,207.75)"/>
<path d="M0 0 C2.95529457 0.36040178 3.75137927 1.02476855 5.5625 3.3125 C6.036875 2.8175 6.51125 2.3225 7 1.8125 C10.71794948 -0.36386067 14.33759324 -0.13312911 18.5625 0.3125 C19.5625 1.3125 19.5625 1.3125 19.625 4.375 C19.604375 5.344375 19.58375 6.31375 19.5625 7.3125 C18.95921875 7.48265625 18.3559375 7.6528125 17.734375 7.828125 C11.33750507 9.76190684 11.33750507 9.76190684 6.5625 14.3125 C5.52516727 17.42449818 5.39311562 19.73743002 5.31640625 23.00390625 C5.28353516 24.11314453 5.25066406 25.22238281 5.21679688 26.36523438 C5.15549944 28.70888303 5.09822061 31.05264017 5.04492188 33.39648438 C5.01076172 34.50443359 4.97660156 35.61238281 4.94140625 36.75390625 C4.9163501 37.77170166 4.89129395 38.78949707 4.86547852 39.83813477 C4.5625 42.3125 4.5625 42.3125 2.5625 44.3125 C0.0625 44.5625 0.0625 44.5625 -2.4375 44.3125 C-5.09820205 41.65179795 -4.68666545 39.65770322 -4.71539307 36.03857422 C-4.7113446 35.18021973 -4.70729614 34.32186523 -4.703125 33.4375 C-4.70503845 32.55723145 -4.7069519 31.67696289 -4.70892334 30.77001953 C-4.71028552 28.90722366 -4.70658682 27.04441831 -4.69824219 25.18164062 C-4.68754307 22.32400264 -4.69813632 19.46699334 -4.7109375 16.609375 C-4.70961591 14.80208194 -4.70705353 12.99478927 -4.703125 11.1875 C-4.70717346 10.32914551 -4.71122192 9.47079102 -4.71539307 8.58642578 C-4.65197057 0.59640648 -4.65197057 0.59640648 0 0 Z " fill="#393845" transform="translate(88.4375,219.6875)"/>
<path d="M0 0 C0.33 0 0.66 0 1 0 C1 7.26 1 14.52 1 22 C1.66 22 2.32 22 3 22 C3.5859375 23.69270833 4.171875 25.38541667 4.7578125 27.078125 C7.07595389 30.66468338 10.19258646 32.56225224 14.33056641 33.56445312 C16.96639119 33.98875908 19.59700195 34.32682443 22.25 34.625 C24.04777759 34.83889988 25.84472755 35.05991238 27.640625 35.2890625 C28.42985352 35.37881348 29.21908203 35.46856445 30.03222656 35.56103516 C32 36 32 36 34 38 C33.9375 39.9375 33.9375 39.9375 33 42 C29.16124454 45.46726299 25.29906872 45.39118836 20.375 45.22265625 C17.53335789 44.9562523 15.43455732 44.52159832 13 43 C12.5359375 41.9790625 12.5359375 41.9790625 12.0625 40.9375 C11.711875 40.298125 11.36125 39.65875 11 39 C7.94091587 38.18415432 7.94091587 38.18415432 5 38 C4.01 40.475 4.01 40.475 3 43 C2.67 43 2.34 43 2 43 C1.67 44.98 1.34 46.96 1 49 C0.67 49 0.34 49 0 49 C0 32.83 0 16.66 0 0 Z " fill="#F3F3F4" transform="translate(347,211)"/>
<path d="M0 0 C5.63630194 0.02010571 5.63630194 0.02010571 8.12109375 1.45703125 C9.4375 2.8125 9.4375 2.8125 11.25 5.375 C11.58 5.705 11.91 6.035 12.25 6.375 C12.25 8.025 12.25 9.675 12.25 11.375 C4 11.375 -4.25 11.375 -12.75 11.375 C-11.66829788 5.9664894 -10.68053096 4.91247787 -6.75 1.375 C-4.95690039 -0.41809961 -2.42624022 0.07692957 0 0 Z " fill="#F7F7F7" transform="translate(130.75,227.625)"/>
<path d="M0 0 C1.43472656 -0.02126953 1.43472656 -0.02126953 2.8984375 -0.04296875 C5.70354027 0.19413879 7.27745155 0.66941867 9.625 2.1875 C12.12595273 5.58165013 12.625 6.86159946 12.625 11.1875 C4.375 11.1875 -3.875 11.1875 -12.375 11.1875 C-11.38721524 6.24857618 -10.63900276 4.74823029 -7.375 1.1875 C-4.801671 -0.0991645 -2.87276962 0.01925449 0 0 Z " fill="#F8F8F8" transform="translate(181.375,227.8125)"/>
</svg>
